<?xml version="1.0" standalone="no"?>
<!DOCTYPE svg PUBLIC "-//W3C//DTD SVG 20010904//EN"
 "http://www.w3.org/TR/2001/REC-SVG-20010904/DTD/svg10.dtd">
<svg version="1.0" xmlns="http://www.w3.org/2000/svg"
 width="602.000000pt" height="414.000000pt" viewBox="0 0 602.000000 414.000000"
 preserveAspectRatio="xMidYMid meet">

<g transform="translate(0.000000,414.000000) scale(0.100000,-0.100000)"
fill="#000000" stroke="none">
<path d="M814 3037 c-12 -31 80 -310 175 -534 119 -280 307 -582 527 -848 99
-120 312 -332 447 -443 431 -358 983 -602 1537 -679 153 -21 537 -24 680 -5
236 31 460 89 652 167 172 71 283 133 267 149 -3 3 -50 -5 -105 -19 -469 -117
-1136 -106 -1616 26 -620 169 -1161 491 -1643 974 -310 310 -552 627 -822
1074 -63 104 -95 149 -99 138z"/>
</g>
</svg>
